<mxfile host="app.diagrams.net" modified="2023-09-30T08:39:20.010Z" agent="Mozilla/5.0 (Windows NT 10.0; Win64; x64) AppleWebKit/537.36 (KHTML, like Gecko) Chrome/117.0.0.0 Safari/537.36" version="21.8.0" etag="JQZ_CbdWXexZ5c2ZKAH1" type="github">
  <diagram name="Seite-1" id="C8at3ej7GkslbxIdSEWO">
    <mxGraphModel>
      <root>
        <mxCell id="0" />
        <mxCell id="1" parent="0" />
      </root>
    </mxGraphModel>
  </diagram>
</mxfile>
